<svg xmlns="http://www.w3.org/2000/svg" viewBox="0 0 400 400">
  <defs>
    <radialGradient id="motionBlur" cx="0.5" cy="0.5" r="0.5">
      <stop offset="0%" stop-color="#ff6a00" stop-opacity="1"/>
      <stop offset="80%" stop-color="#ff6a00" stop-opacity="0.6"/>
      <stop offset="100%" stop-color="#ff6a00" stop-opacity="0"/>
    </radialGradient>
  </defs>

  <!-- 六边形 -->
  <polygon points="200,50 337,125 337,275 200,350 63,275 63,125" fill="none" stroke="#ff6a00" stroke-width="10"/>
  
  <!-- 所有静态连线 -->
  <line x1="200" y1="50" x2="200" y2="350" stroke="#ff6a00" stroke-width="7"/>
  <line x1="337" y1="125" x2="200" y2="350" stroke="#ff6a00" stroke-width="7"/>
  <line x1="63" y1="125" x2="200" y2="350" stroke="#ff6a00" stroke-width="7"/>
  <line x1="200" y1="350" x2="63" y2="125" stroke="#ff6a00" stroke-width="7"/>
  <line x1="200" y1="200" x2="337" y2="125" stroke="#ff6a00" stroke-width="7"/>
  <line x1="200" y1="200" x2="63" y2="125" stroke="#ff6a00" stroke-width="7"/>
  
  <!-- 所有静态圆点 -->
  <circle cx="200" cy="200" r="25" fill="#ff6a00"/>
  <circle cx="337" cy="125" r="25" fill="#ff6a00"/>
  <circle cx="200" cy="350" r="25" fill="#ff6a00"/>
  <circle cx="63" cy="125" r="25" fill="#ff6a00"/>
  
  <!-- 运动的圆 -->
  <g>
    <circle r="30" fill="url(#motionBlur)">
      <animateMotion dur="5s" repeatCount="indefinite" keyPoints="0;0.25;0.5;0.75;1" keyTimes="0;0.25;0.5;0.75;1" calcMode="linear">
        <mpath href="#motionPath"/>
      </animateMotion>
    </circle>
    <circle r="25" fill="#ff6a00">
      <animateMotion dur="5s" repeatCount="indefinite" keyPoints="0;0.25;0.5;0.75;1" keyTimes="0;0.25;0.5;0.75;1" calcMode="linear">
        <mpath href="#motionPath"/>
      </animateMotion>
    </circle>
  </g>
  
  <!-- 定义运动路径 -->
  <path id="motionPath" d="M200,200 L337,125 L200,350 L63,125 Z" fill="none" stroke="none"/>
</svg>
